<svg width="161" height="160" viewBox="0 0 161 160" fill="none" xmlns="http://www.w3.org/2000/svg">
<circle cx="77.4995" cy="78.0005" r="54" fill="#8B94B1"/>
<mask id="mask0_3812_19681" style="mask-type:alpha" maskUnits="userSpaceOnUse" x="23" y="24" width="109" height="109">
<circle cx="77.4995" cy="78.0005" r="54" fill="#D9D9D9"/>
</mask>
<g mask="url(#mask0_3812_19681)">
<path fill-rule="evenodd" clip-rule="evenodd" d="M72.2946 29.8554C72.2946 33.9788 70.7602 37.7439 68.2312 40.6108C66.2147 42.8967 65.79 47.6271 65.79 50.6753C65.79 54.6278 62.5858 57.832 58.6334 57.832C55.7692 57.832 51.5879 58.4232 49.3602 60.2235C47.1823 61.9836 44.4101 63.0377 41.3917 63.0377C36.238 63.0377 31.802 59.9647 29.8162 55.5511C29.1953 54.1712 28.3109 52.9026 27.1673 51.9117C23.7254 48.9294 21.5483 44.5262 21.5483 39.6145C21.5483 30.6316 28.8305 23.3494 37.8134 23.3494C39.6695 23.3494 41.4566 22.3895 42.4861 20.8452C45.4016 16.4716 50.3791 13.5903 56.0295 13.5903C65.0125 13.5903 72.2946 20.8724 72.2946 29.8554Z" fill="#F6F7F9"/>
<path fill-rule="evenodd" clip-rule="evenodd" d="M134.703 52.7634C134.274 49.4806 134.381 46.0347 135.023 42.7867C135.368 41.0365 135.439 39.2012 135.195 37.3344C133.988 28.1025 125.526 21.5969 116.294 22.8037C107.063 24.0104 100.557 32.4726 101.764 41.7045C101.944 43.0849 102.287 44.4044 102.77 45.6463C103.181 46.7023 103.181 47.8819 102.772 48.9387C102.688 49.1557 102.609 49.3747 102.534 49.5957C101.981 51.2252 100.294 52.3269 98.588 52.5499C93.9502 53.1561 90.6821 57.4072 91.2883 62.045C91.8945 66.6827 96.1456 69.9509 100.783 69.3447C104.137 68.9063 108.29 68.6031 111.366 70.0097C111.643 70.1365 111.924 70.2558 112.209 70.3674C114.479 71.2577 116.441 72.9204 117.946 74.8398C120.483 78.0762 124.614 79.9284 128.987 79.3568C135.579 78.4952 140.223 72.4534 139.362 65.8621C139.154 64.274 138.646 62.7989 137.902 61.4866C136.385 58.8118 135.102 55.8125 134.703 52.7634Z" fill="#F6F7F9"/>
<path fill-rule="evenodd" clip-rule="evenodd" d="M90.91 102.518C90.91 100.751 92.0561 98.9821 93.5591 98.0514C95.8741 96.6179 97.4163 94.0551 97.4163 91.132C97.4163 86.6406 93.7752 82.9995 89.2837 82.9995C86.6795 82.9995 84.3611 84.2236 82.8727 86.1278C81.6535 87.6876 78.901 88.8556 76.9213 88.8556C75.0666 88.8556 73.0885 88.6408 71.2638 88.3085C70.8832 88.2392 70.4911 88.203 70.0905 88.203C66.4973 88.203 63.5845 91.1158 63.5845 94.709C63.5845 97.3907 65.207 99.6935 67.524 100.689C68.2565 101.004 68.7896 101.721 68.7896 102.518C68.7896 108.627 73.7414 113.579 79.8498 113.579C85.9582 113.579 90.91 108.627 90.91 102.518Z" fill="#F6F7F9"/>
<path fill-rule="evenodd" clip-rule="evenodd" d="M37.9439 130.348C40.034 128.535 43.2997 128.077 45.9411 128.9C50.0124 130.169 54.6272 129.364 58.0855 126.365C63.3987 121.757 63.9704 113.714 59.3625 108.401C56.691 105.321 52.865 103.834 49.0857 104.026C45.9898 104.184 41.7855 102.127 39.7544 99.7849C37.8503 97.5893 36.0727 95.0276 34.5909 92.5274C34.2833 92.0083 33.9251 91.5094 33.5158 91.0375C29.8294 86.7869 23.3953 86.3296 19.1448 90.0159C15.9716 92.7679 14.9124 97.0512 16.1131 100.814C16.4917 102.001 16.191 103.364 15.2499 104.18C8.02402 110.447 7.2465 121.385 13.5133 128.611C19.78 135.837 30.718 136.614 37.9439 130.348Z" fill="#F6F7F9"/>
<path fill-rule="evenodd" clip-rule="evenodd" d="M131.689 115.491C130.619 113.846 130.334 111.64 131.119 109.841C133.849 103.584 131.656 96.5893 126.222 94.2189C120.787 91.8485 114.169 94.9998 111.44 101.257C110.416 103.604 110.085 106.054 110.357 108.326C110.526 109.737 109.174 111.351 107.799 111.713C107.638 111.756 107.462 111.784 107.294 111.787C104.958 111.825 102.469 112.379 100.054 113.499C92.8835 116.826 89.0932 123.883 91.5884 129.261C94.0836 134.639 101.919 136.302 109.09 132.975C112.365 131.456 116.615 131.611 120.148 132.356C121.916 132.728 123.8 132.672 125.649 132.107C131.491 130.322 134.781 124.14 132.997 118.298C132.686 117.28 132.242 116.34 131.689 115.491Z" fill="#F6F7F9"/>
</g>
<path d="M122.066 37.2582L117.968 39.4587L130.735 51.0854L121.902 55.8267L118.463 53.4283C117.871 53.0159 117.099 52.9711 116.461 53.3133L113.504 54.9012L118.592 60.8653L120.754 68.403L123.712 66.8133C124.349 66.473 124.739 65.8023 124.722 65.081L124.622 60.8896L133.453 56.1477L136.093 73.2122L140.191 71.0117C140.79 70.6919 141.173 70.0771 141.199 69.3988L141.484 62.0852L143.936 60.7686C144.54 60.4441 144.767 59.6912 144.442 59.0869C144.118 58.4825 143.365 58.2557 142.761 58.5802L141.596 59.2056L141.891 51.6155L149.485 47.5393C150.884 46.7883 151.409 45.0459 150.658 43.6472C149.906 42.2504 148.166 41.726 146.768 42.4752L139.173 46.5532L132.363 42.4132L133.696 41.6979C134.3 41.3735 134.527 40.6205 134.202 40.0162C133.878 39.4119 133.125 39.185 132.52 39.5095L129.901 40.9161L123.968 37.3089C123.388 36.9561 122.663 36.9378 122.066 37.2582Z" fill="#38435A"/>
<path fill-rule="evenodd" clip-rule="evenodd" d="M24.0045 66.3382C24.3253 66.7748 24.2314 67.3888 23.7948 67.7096C23.263 68.1003 22.7469 68.4881 22.2466 68.8726C21.8171 69.2027 21.2011 69.1222 20.871 68.6926C20.5408 68.263 20.6213 67.6471 21.0509 67.3169C21.5629 66.9234 22.0904 66.5272 22.6331 66.1285C23.0697 65.8077 23.6837 65.9016 24.0045 66.3382ZM18.5991 70.5554C18.9591 70.9604 18.9226 71.5805 18.5176 71.9404C18.0219 72.381 17.5512 72.8155 17.1063 73.2434C16.7157 73.6189 16.0947 73.6067 15.7191 73.2162C15.3436 72.8256 15.3558 72.2046 15.7463 71.8291C16.2111 71.3821 16.7006 70.9303 17.2141 70.4739C17.6191 70.114 18.2392 70.1505 18.5991 70.5554ZM13.7331 75.3793C14.1646 75.707 14.2487 76.3225 13.921 76.7539C13.5203 77.2817 13.1732 77.7909 12.8795 78.2805C12.6008 78.7451 11.9982 78.8958 11.5336 78.6171C11.0689 78.3384 10.9182 77.7358 11.1969 77.2712C11.5322 76.7122 11.9206 76.1438 12.3585 75.5673C12.6862 75.1358 13.3016 75.0516 13.7331 75.3793ZM10.6019 81.4309C11.1395 81.3641 11.6296 81.7458 11.6964 82.2835C11.7279 82.537 11.787 82.7785 11.8736 83.0092C11.9627 83.2469 12.0812 83.474 12.2303 83.6916C12.5366 84.1385 12.4226 84.7491 11.9757 85.0554C11.5288 85.3617 10.9182 85.2477 10.6119 84.8008C10.3758 84.4563 10.1828 84.0886 10.0364 83.6983C9.89434 83.3194 9.79925 82.9276 9.74928 82.5254C9.68247 81.9878 10.0642 81.4977 10.6019 81.4309ZM14.6608 86.6023C14.8218 86.085 15.3718 85.7961 15.8891 85.9571C16.4561 86.1336 17.0786 86.2884 17.7561 86.4207C18.2879 86.5245 18.6348 87.0398 18.531 87.5716C18.4272 88.1033 17.9119 88.4503 17.3801 88.3464C16.6428 88.2025 15.9502 88.0311 15.306 87.8306C14.7887 87.6695 14.4998 87.1196 14.6608 86.6023ZM21.5927 87.883C21.6143 87.3416 22.0707 86.9202 22.6121 86.9418C23.248 86.9671 23.9082 86.9801 24.5918 86.9809C25.1336 86.9816 25.5724 87.4213 25.5717 87.9631C25.5711 88.5049 25.1314 88.9436 24.5896 88.943C23.8825 88.9422 23.197 88.9287 22.534 88.9023C21.9926 88.8807 21.5712 88.4243 21.5927 87.883ZM28.6634 87.8454C28.6259 87.3049 29.0337 86.8363 29.5742 86.7988C30.2214 86.754 30.883 86.7008 31.5585 86.6394C32.0981 86.5904 32.5752 86.9881 32.6242 87.5277C32.6733 88.0673 32.2756 88.5444 31.736 88.5935C31.0472 88.656 30.3717 88.7103 29.71 88.7562C29.1695 88.7937 28.7009 88.3859 28.6634 87.8454ZM35.6855 87.1772C35.613 86.6402 35.9896 86.1462 36.5265 86.0738C37.1769 85.986 37.8372 85.892 38.507 85.7917C39.0428 85.7115 39.5422 86.0809 39.6225 86.6167C39.7027 87.1525 39.3333 87.652 38.7975 87.7322C38.1186 87.8338 37.4489 87.9292 36.7889 88.0182C36.2519 88.0907 35.7579 87.7141 35.6855 87.1772ZM42.67 86.1088C42.573 85.5758 42.9265 85.065 43.4596 84.968C44.1108 84.8495 44.7694 84.7259 45.435 84.5972C45.9669 84.4943 46.4815 84.8422 46.5844 85.3742C46.6873 85.9061 46.3394 86.4207 45.8074 86.5236C45.1349 86.6536 44.4693 86.7786 43.8108 86.8984C43.2778 86.9954 42.767 86.6419 42.67 86.1088ZM49.5985 84.7512C49.4825 84.2219 49.8176 83.6988 50.3469 83.5829C50.9982 83.4402 51.6551 83.2931 52.3174 83.1418C52.8456 83.021 53.3717 83.3514 53.4924 83.8795C53.6131 84.4077 53.2828 84.9338 52.7546 85.0545C52.0866 85.2072 51.4239 85.3555 50.7668 85.4995C50.2375 85.6155 49.7145 85.2804 49.5985 84.7512ZM56.4825 83.1626C56.3509 82.637 56.6702 82.1042 57.1958 81.9726C57.8433 81.8105 58.4951 81.6446 59.1512 81.4749C59.6757 81.3392 60.2109 81.6545 60.3466 82.179C60.4823 82.7036 60.167 83.2388 59.6425 83.3745C58.9816 83.5454 58.3249 83.7126 57.6724 83.8759C57.1469 84.0075 56.6141 83.6882 56.4825 83.1626ZM63.3191 81.3808C63.174 80.8588 63.4795 80.3179 64.0015 80.1728C64.6459 79.9936 65.2938 79.811 65.9451 79.6251C66.4661 79.4764 67.009 79.7782 67.1577 80.2992C67.3065 80.8202 67.0047 81.3631 66.4837 81.5118C65.8282 81.699 65.1759 81.8828 64.5271 82.0632C64.0051 82.2083 63.4643 81.9028 63.3191 81.3808ZM116.619 61.7193C116.847 62.2109 116.633 62.7941 116.141 63.0221C115.608 63.2695 115.071 63.5167 114.53 63.7635C114.037 63.9886 113.455 63.7716 113.23 63.2787C113.005 62.7859 113.222 62.2039 113.715 61.9788C114.252 61.7335 114.786 61.4879 115.316 61.242C115.807 61.0141 116.391 61.2278 116.619 61.7193ZM70.1097 79.4298C69.9524 78.9113 70.2453 78.3635 70.7638 78.2062C71.4046 78.0119 72.0481 77.8145 72.6943 77.614C73.2118 77.4535 73.7614 77.7428 73.922 78.2603C74.0825 78.7778 73.7931 79.3275 73.2756 79.488C72.6255 79.6897 71.978 79.8883 71.3332 80.0838C70.8147 80.2411 70.2669 79.9483 70.1097 79.4298ZM110.987 64.2841C111.206 64.7801 110.981 65.359 110.485 65.5772C109.946 65.8144 109.404 66.051 108.86 66.2872C108.362 66.5028 107.785 66.2746 107.569 65.7775C107.354 65.2804 107.582 64.7027 108.079 64.4871C108.62 64.2523 109.159 64.0171 109.694 63.7814C110.19 63.5631 110.769 63.7882 110.987 64.2841ZM76.856 77.3253C76.6876 76.8104 76.9685 76.2564 77.4835 76.088C78.1185 75.8804 78.7556 75.67 79.3947 75.4568C79.9087 75.2853 80.4643 75.563 80.6357 76.077C80.8072 76.591 80.5295 77.1466 80.0155 77.318C79.3727 77.5324 78.732 77.7441 78.0933 77.9529C77.5783 78.1213 77.0243 77.8403 76.856 77.3253ZM105.308 66.7405C105.517 67.2404 105.281 67.8151 104.781 68.0241C104.238 68.2513 103.692 68.4779 103.144 68.7039C102.643 68.9104 102.069 68.6717 101.863 68.1708C101.656 67.6699 101.895 67.0964 102.396 66.8899C102.941 66.6652 103.484 66.4399 104.024 66.214C104.524 66.0049 105.099 66.2407 105.308 66.7405ZM83.5587 75.0783C83.3798 74.5668 83.6495 74.0072 84.1609 73.8284C84.79 73.6084 85.4208 73.3858 86.053 73.1607C86.5635 72.9789 87.1246 73.2454 87.3063 73.7558C87.488 74.2662 87.2216 74.8273 86.7112 75.0091C86.0754 75.2354 85.4412 75.4592 84.8086 75.6805C84.2972 75.8593 83.7376 75.5897 83.5587 75.0783ZM99.5841 69.0932C99.7843 69.5967 99.5384 70.1671 99.0349 70.3673C98.4875 70.5849 97.9378 70.8019 97.386 71.0181C96.8816 71.2158 96.3124 70.9671 96.1147 70.4626C95.917 69.9581 96.1657 69.3889 96.6702 69.1913C97.219 68.9762 97.7656 68.7605 98.31 68.544C98.8135 68.3439 99.3839 68.5897 99.5841 69.0932ZM90.2061 72.7002C90.0172 72.1924 90.2758 71.6276 90.7836 71.4388C91.0991 71.3215 91.4148 71.2035 91.7309 71.085C92.0064 70.9816 92.2815 70.8781 92.5562 70.7743C93.063 70.5828 93.6291 70.8385 93.8206 71.3453C94.0121 71.8522 93.7565 72.4183 93.2496 72.6098C92.9735 72.7141 92.697 72.8182 92.4199 72.9221C92.1022 73.0413 91.7847 73.1598 91.4676 73.2778C90.9597 73.4666 90.395 73.2081 90.2061 72.7002Z" fill="#38435A"/>
<path d="M16.5376 29.1174C16.5376 31.0867 14.9412 32.6831 12.9719 32.6831C11.0027 32.6831 9.40625 31.0867 9.40625 29.1174C9.40625 27.1482 11.0027 25.5518 12.9719 25.5518C14.9412 25.5518 16.5376 27.1482 16.5376 29.1174Z" fill="#F6F7F9"/>
<path d="M111.435 151.647C111.435 152.46 110.776 153.119 109.963 153.119C109.151 153.119 108.492 152.46 108.492 151.647C108.492 150.835 109.151 150.176 109.963 150.176C110.776 150.176 111.435 150.835 111.435 151.647Z" fill="#F6F7F9"/>
<path d="M146.035 107.141C146.035 109.111 144.438 110.707 142.469 110.707C140.5 110.707 138.903 109.111 138.903 107.141C138.903 105.172 140.5 103.576 142.469 103.576C144.438 103.576 146.035 105.172 146.035 107.141Z" fill="#F6F7F9"/>
<path fill-rule="evenodd" clip-rule="evenodd" d="M140.865 125.436C140.865 124.86 141.332 124.393 141.908 124.393H149.207C149.783 124.393 150.25 124.86 150.25 125.436C150.25 126.012 149.783 126.479 149.207 126.479H141.908C141.332 126.479 140.865 126.012 140.865 125.436Z" fill="#F6F7F9"/>
<path fill-rule="evenodd" clip-rule="evenodd" d="M145.557 130.128C144.981 130.128 144.514 129.662 144.514 129.086V121.786C144.514 121.211 144.981 120.744 145.557 120.744C146.133 120.744 146.6 121.211 146.6 121.786V129.086C146.6 129.662 146.133 130.128 145.557 130.128Z" fill="#F6F7F9"/>
<path fill-rule="evenodd" clip-rule="evenodd" d="M4.50049 111.211C4.50049 110.635 4.96735 110.168 5.54324 110.168H12.8425C13.4184 110.168 13.8853 110.635 13.8853 111.211C13.8853 111.787 13.4184 112.254 12.8425 112.254H5.54324C4.96735 112.254 4.50049 111.787 4.50049 111.211Z" fill="#F6F7F9"/>
<path fill-rule="evenodd" clip-rule="evenodd" d="M9.19272 115.903C8.61682 115.903 8.14997 115.436 8.14997 114.861V107.561C8.14997 106.985 8.61682 106.519 9.19272 106.519C9.76862 106.519 10.2355 106.985 10.2355 107.561V114.861C10.2355 115.436 9.76862 115.903 9.19272 115.903Z" fill="#F6F7F9"/>
<path fill-rule="evenodd" clip-rule="evenodd" d="M129.092 8.69287C129.092 8.11697 129.559 7.65012 130.135 7.65012H137.434C138.01 7.65012 138.477 8.11697 138.477 8.69287C138.477 9.26876 138.01 9.73562 137.434 9.73562H130.135C129.559 9.73562 129.092 9.26876 129.092 8.69287Z" fill="#F6F7F9"/>
<path fill-rule="evenodd" clip-rule="evenodd" d="M133.785 13.3853C133.209 13.3853 132.742 12.9184 132.742 12.3425V5.04324C132.742 4.46735 133.209 4.00049 133.785 4.00049C134.36 4.00049 134.827 4.46735 134.827 5.04324V12.3425C134.827 12.9184 134.36 13.3853 133.785 13.3853Z" fill="#F6F7F9"/>
<g style="mix-blend-mode:color">
<path d="M132.742 12.3425C132.742 12.9184 133.209 13.3853 133.785 13.3853C134.36 13.3853 134.827 12.9184 134.827 12.3425V9.73562H137.434C138.01 9.73562 138.477 9.26876 138.477 8.69287C138.477 8.11697 138.01 7.65012 137.434 7.65012H134.827V5.04324C134.827 4.46735 134.36 4.00049 133.785 4.00049C133.209 4.00049 132.742 4.46735 132.742 5.04324V7.65012H130.135C129.559 7.65012 129.092 8.11697 129.092 8.69287C129.092 9.26876 129.559 9.73562 130.135 9.73562H132.742V12.3425Z" fill="#488BF8"/>
<path d="M131.501 78.0005C131.501 107.824 107.324 132 77.5005 132C51.4261 132 29.6681 113.52 24.6098 88.943L24.5891 88.9432C23.882 88.9424 23.1965 88.9289 22.5335 88.9025C21.9921 88.8809 21.5707 88.4245 21.5923 87.8831C21.6138 87.3418 22.0702 86.9204 22.6116 86.9419C23.1391 86.963 23.6832 86.9755 24.2436 86.9796C23.7549 84.0593 23.5005 81.0596 23.5005 78.0005C23.5005 48.1771 47.6771 24.0005 77.5005 24.0005C98.6044 24.0005 116.881 36.1067 125.764 53.7532L130.734 51.0853L117.967 39.4585L122.065 37.2581C122.662 36.9377 123.387 36.956 123.967 37.3087L129.9 40.9159L132.519 39.5093C133.124 39.1848 133.877 39.4117 134.201 40.016C134.526 40.6203 134.299 41.3733 133.695 41.6978L132.362 42.4131L139.172 46.553L146.767 42.475C148.165 41.7259 149.905 42.2503 150.657 43.6471C151.408 45.0457 150.883 46.7882 149.484 47.5392L141.89 51.6153L141.595 59.2055L142.76 58.58C143.364 58.2555 144.117 58.4824 144.441 59.0867C144.766 59.691 144.539 60.444 143.935 60.7685L141.483 62.0851L141.198 69.3987C141.172 70.077 140.789 70.6917 140.19 71.0116L136.092 73.212L133.452 56.1476L128.076 59.0345C130.29 64.9352 131.501 71.3265 131.501 78.0005Z" fill="#488BF8"/>
<path d="M24.004 66.3384C24.3248 66.775 24.2309 67.389 23.7943 67.7098C23.2625 68.1005 22.7464 68.4883 22.2461 68.8727C21.8166 69.2029 21.2007 69.1224 20.8705 68.6928C20.5403 68.2632 20.6209 67.6473 21.0504 67.3171C21.5624 66.9236 22.0899 66.5274 22.6326 66.1286C23.0692 65.8078 23.6832 65.9017 24.004 66.3384Z" fill="#488BF8"/>
<path d="M18.5987 70.5556C18.9586 70.9606 18.9221 71.5807 18.5171 71.9406C18.0214 72.3812 17.5508 72.8157 17.1058 73.2436C16.7152 73.6191 16.0942 73.6069 15.7187 73.2164C15.3431 72.8258 15.3553 72.2048 15.7458 71.8292C16.2106 71.3823 16.7002 70.9305 17.2137 70.4741C17.6186 70.1141 18.2387 70.1507 18.5987 70.5556Z" fill="#488BF8"/>
<path d="M13.7326 75.3795C14.1641 75.7072 14.2483 76.3226 13.9206 76.7541C13.5198 77.2819 13.1727 77.7911 12.879 78.2806C12.6003 78.7453 11.9977 78.896 11.5331 78.6173C11.0684 78.3386 10.9177 77.736 11.1964 77.2714C11.5317 76.7124 11.9201 76.144 12.358 75.5674C12.6857 75.136 13.3011 75.0518 13.7326 75.3795Z" fill="#488BF8"/>
<path d="M10.6014 81.4311C11.1391 81.3643 11.6291 81.746 11.6959 82.2837C11.7274 82.5372 11.7865 82.7787 11.8731 83.0094C11.9622 83.2471 12.0807 83.4742 12.2298 83.6918C12.5361 84.1387 12.4222 84.7493 11.9752 85.0556C11.5283 85.3619 10.9177 85.2479 10.6114 84.801C10.3753 84.4565 10.1823 84.0887 10.036 83.6984C9.89385 83.3196 9.79876 82.9278 9.74879 82.5256C9.68199 81.9879 10.0637 81.4979 10.6014 81.4311Z" fill="#488BF8"/>
<path d="M14.6603 86.6025C14.8214 86.0852 15.3713 85.7963 15.8886 85.9573C16.4556 86.1338 17.0781 86.2886 17.7556 86.4209C18.2874 86.5247 18.6343 87.04 18.5305 87.5718C18.4267 88.1035 17.9114 88.4504 17.3796 88.3466C16.6423 88.2027 15.9497 88.0312 15.3055 87.8307C14.7882 87.6697 14.4993 87.1198 14.6603 86.6025Z" fill="#488BF8"/>
<path d="M12.9714 32.6836C14.9407 32.6836 16.5371 31.0872 16.5371 29.1179C16.5371 27.1486 14.9407 25.5522 12.9714 25.5522C11.0022 25.5522 9.40576 27.1486 9.40576 29.1179C9.40576 31.0872 11.0022 32.6836 12.9714 32.6836Z" fill="#488BF8"/>
<path d="M111.434 151.647C111.434 152.46 110.775 153.118 109.962 153.118C109.15 153.118 108.491 152.46 108.491 151.647C108.491 150.834 109.15 150.175 109.962 150.175C110.775 150.175 111.434 150.834 111.434 151.647Z" fill="#488BF8"/>
<path d="M142.468 110.707C144.438 110.707 146.034 109.111 146.034 107.141C146.034 105.172 144.438 103.576 142.468 103.576C140.499 103.576 138.903 105.172 138.903 107.141C138.903 109.111 140.499 110.707 142.468 110.707Z" fill="#488BF8"/>
<path d="M140.865 125.436C140.865 124.86 141.332 124.393 141.908 124.393H144.514V121.786C144.514 121.211 144.981 120.744 145.557 120.744C146.133 120.744 146.6 121.211 146.6 121.786V124.393H149.207C149.783 124.393 150.25 124.86 150.25 125.436C150.25 126.012 149.783 126.479 149.207 126.479H146.6V129.086C146.6 129.662 146.133 130.128 145.557 130.128C144.981 130.128 144.514 129.662 144.514 129.086V126.479H141.908C141.332 126.479 140.865 126.012 140.865 125.436Z" fill="#488BF8"/>
<path d="M4.50049 111.211C4.50049 110.636 4.96735 110.169 5.54324 110.169H8.14997V107.562C8.14997 106.986 8.61682 106.519 9.19272 106.519C9.76862 106.519 10.2355 106.986 10.2355 107.562V110.169H12.8425C13.4184 110.169 13.8853 110.636 13.8853 111.211C13.8853 111.787 13.4184 112.254 12.8425 112.254H10.2355V114.861C10.2355 115.437 9.76862 115.904 9.19272 115.904C8.61682 115.904 8.14997 115.437 8.14997 114.861V112.254H5.54324C4.96735 112.254 4.50049 111.787 4.50049 111.211Z" fill="#488BF8"/>
</g>
</svg>
